<svg xmlns="http://www.w3.org/2000/svg" xmlns:xlink="http://www.w3.org/1999/xlink" width="283.984" height="51" viewBox="0 0 283.984 51">
  <defs>
    <clipPath id="clip-path">
      <rect id="Rectangle_56" data-name="Rectangle 56" width="23.866" height="29" fill="none" stroke="#2b2b2b" stroke-width="0.1"/>
    </clipPath>
  </defs>
  <g id="logo" transform="translate(-160 -30)">
    <rect id="Rectangle_1" data-name="Rectangle 1" width="42" height="42" rx="11" transform="translate(160 30)" fill="#0f1129"/>
    <g id="Group_1" data-name="Group 1" transform="translate(169.067 36.5)">
      <g id="Group_65" data-name="Group 65" clip-path="url(#clip-path)">
        <path id="Path_23" data-name="Path 23" d="M8.466,13.6h-3.9L.666,4.7a2.25,2.25,0,0,1-.1-1.4,1.962,1.962,0,0,1,.9-.9,2.25,2.25,0,0,1,1.4-.1,1.962,1.962,0,0,1,.9.9Zm-3.1,1.8h5.2a1.8,1.8,0,0,1,1.5.7,2.127,2.127,0,0,1,.7,1.5,1.8,1.8,0,0,1-.7,1.5,2.127,2.127,0,0,1-1.5.7h-3q-.75,0-.9.9,0,.75.9.9h3a3.764,3.764,0,0,0,3.9-3.9v-.2a3.453,3.453,0,0,0,1.8.5,3.606,3.606,0,0,0,2-.6,2.742,2.742,0,0,0,1.3,1.7,3.722,3.722,0,0,0,2,.7,3.743,3.743,0,0,0,1.8-.5v.5a8.775,8.775,0,0,1-2.6,6.2,8.687,8.687,0,0,1-6.2,2.5h-3.4a8.54,8.54,0,0,1-6.2-2.6l-.6-.6a7.573,7.573,0,0,1-2.1-5V18.8a3.583,3.583,0,0,1,.9-2.4,4.074,4.074,0,0,1,2.2-1M12.266,1a1.728,1.728,0,0,1,.5,1.3V13.7h-3.5V2.3a2.106,2.106,0,0,1,.5-1.3,1.536,1.536,0,0,1,1.3-.5,1.656,1.656,0,0,1,1.2.5m5.3,8.7a1.728,1.728,0,0,1,.5,1.3v3.5a2.106,2.106,0,0,1-.5,1.3,1.428,1.428,0,0,1-1.3.5,2.106,2.106,0,0,1-1.3-.5c-.4-.3-.4-.8-.4-1.3V11a2.106,2.106,0,0,1,.5-1.3,1.428,1.428,0,0,1,1.3-.5,2.567,2.567,0,0,1,1.2.5m2.7,1.8a1.728,1.728,0,0,1,1.3-.5,2.106,2.106,0,0,1,1.3.5,1.428,1.428,0,0,1,.5,1.3v3.5a2.106,2.106,0,0,1-.5,1.3,1.428,1.428,0,0,1-1.3.5,2.106,2.106,0,0,1-1.3-.5,1.428,1.428,0,0,1-.5-1.3V12.8a1.728,1.728,0,0,1,.5-1.3" fill="#fff" stroke="#2b2b2b" stroke-width="0.1"/>
        <path id="Path_24" data-name="Path 24" d="M8.466,13.6h-3.9L.666,4.7a2.25,2.25,0,0,1-.1-1.4,1.962,1.962,0,0,1,.9-.9,2.25,2.25,0,0,1,1.4-.1,1.962,1.962,0,0,1,.9.9Zm-3.1,1.8h5.2a1.8,1.8,0,0,1,1.5.7,2.127,2.127,0,0,1,.7,1.5,1.8,1.8,0,0,1-.7,1.5,2.127,2.127,0,0,1-1.5.7h-3q-.75,0-.9.9,0,.75.9.9h3a3.764,3.764,0,0,0,3.9-3.9v-.2a3.453,3.453,0,0,0,1.8.5,3.606,3.606,0,0,0,2-.6,2.742,2.742,0,0,0,1.3,1.7,3.722,3.722,0,0,0,2,.7,3.743,3.743,0,0,0,1.8-.5v.5a8.775,8.775,0,0,1-2.6,6.2,8.687,8.687,0,0,1-6.2,2.5h-3.4a8.54,8.54,0,0,1-6.2-2.6l-.6-.6a7.573,7.573,0,0,1-2.1-5V18.8a3.583,3.583,0,0,1,.9-2.4A4.074,4.074,0,0,1,5.366,15.4ZM12.266,1a1.728,1.728,0,0,1,.5,1.3V13.7h-3.5V2.3a2.106,2.106,0,0,1,.5-1.3,1.536,1.536,0,0,1,1.3-.5A1.656,1.656,0,0,1,12.266,1Zm5.3,8.7a1.728,1.728,0,0,1,.5,1.3v3.5a2.106,2.106,0,0,1-.5,1.3,1.428,1.428,0,0,1-1.3.5,2.106,2.106,0,0,1-1.3-.5c-.4-.3-.4-.8-.4-1.3V11a2.106,2.106,0,0,1,.5-1.3,1.428,1.428,0,0,1,1.3-.5A2.567,2.567,0,0,1,17.566,9.7Zm2.7,1.8a1.728,1.728,0,0,1,1.3-.5,2.106,2.106,0,0,1,1.3.5,1.428,1.428,0,0,1,.5,1.3v3.5a2.106,2.106,0,0,1-.5,1.3,1.428,1.428,0,0,1-1.3.5,2.106,2.106,0,0,1-1.3-.5,1.428,1.428,0,0,1-.5-1.3V12.8A1.728,1.728,0,0,1,20.266,11.5Z" fill="none" stroke="#2b2b2b" stroke-miterlimit="10" stroke-width="0.1"/>
      </g>
    </g>
    <text id="I_Got_Skills.in" data-name="I Got Skills.in" transform="translate(206.984 60.5)" fill="#fff" font-size="25" font-family="Orbitron-Black, Orbitron" font-weight="800" letter-spacing="0.047em"><tspan x="0" y="0">I GOT SKILLS.IN</tspan></text>
    <text id="Hackathon_Jan_27th_and_28th" data-name="Hackathon Jan 27th and 28th" transform="translate(206.984 78)" fill="#fff" font-size="10" font-family="Orbitron-Medium, Orbitron" font-weight="500" letter-spacing="0.047em"><tspan x="0" y="0">Hackathon Jan 27th and 28th</tspan></text>
  </g>
</svg>
